<svg width="229" height="381" viewBox="0 0 229 381" fill="none" xmlns="http://www.w3.org/2000/svg">
<path d="M75.7123 238.498C87.8818 238.498 97.7471 222.651 97.7471 203.102C97.7471 183.553 87.8818 167.706 75.7123 167.706C63.5427 167.706 53.6775 183.553 53.6775 203.102C53.6775 222.651 63.5427 238.498 75.7123 238.498Z" fill="#6164C3"/>
<path d="M216.895 285.755C227.806 302.612 229.584 318.212 227.694 330.966C224.91 349.738 211.589 365.274 193.632 371.46C108.043 400.93 67.995 352.715 67.995 352.715C54.3012 330.352 88.0097 342.65 88.0097 342.65C164.019 361.413 181.102 328.882 181.102 328.882C185.319 321.942 175.441 306.658 175.441 306.658L216.905 285.755H216.895Z" fill="#6164C3"/>
<path d="M72.5285 153.854C71.6069 181.808 70.797 203.065 70.3129 215.232C69.9592 224.107 67.1664 232.731 62.1674 240.07C50.6892 256.927 42.6553 255.81 42.6553 255.81C14.2716 257.141 20.0154 286.425 26.5225 304.872C29.8366 314.268 37.0512 321.803 46.3604 325.384C93.7255 343.58 133.969 342.324 160.286 337.664C184.909 333.301 205.687 316.463 214.475 293.058C237.068 232.861 191.686 180.199 191.686 180.199C154.552 142.282 165.471 132.319 165.471 132.319L72.5285 153.854Z" fill="#797EF4"/>
<path d="M181.539 166.403C183.094 170.599 183.084 175.222 181.539 179.418C174.148 199.474 144.656 231.363 120.443 231.363C94.0421 231.363 69.8289 223.437 72.1283 187.334C72.3982 183.12 72.3704 178.887 71.9328 174.692C67.8275 134.988 99.2739 148.682 125.898 148.682C153.165 148.682 157.484 101.546 181.539 166.403Z" fill="#C5C7F7"/>
<path d="M77.4342 103.983C74.9393 110.448 68.0599 115.509 64.0755 111.871C59.9981 108.141 57.466 103.825 59.7654 96.3547C63.4984 84.2241 68.2461 86.3637 73.1241 88.4661C85.5612 93.843 79.9291 97.5268 77.4342 103.983Z" fill="#3B3E75"/>
<path d="M165.415 103.462C167.91 109.927 174.79 114.988 178.774 111.351C182.851 107.62 185.383 103.304 183.084 95.8338C179.351 83.7033 174.603 85.8428 169.725 87.9452C157.288 93.3221 162.92 97.006 165.415 103.462Z" fill="#3B3E75"/>
<path d="M178.457 126.16C178.457 153.287 160.351 176.98 121.671 177.045C82.7775 177.11 64.1685 152.161 64.1685 125.035C64.1685 97.9083 79.4728 73.4332 121.671 75.3868C167.007 77.4891 178.457 99.0339 178.457 126.16Z" fill="#797EF4"/>
<path d="M177.433 138.626C174.38 165.38 147.058 177.045 121.308 177.045C95.5685 177.045 67.5852 164.794 64.1594 134.895C62.5861 121.109 95.9315 115.695 121.671 115.695C147.411 115.695 178.997 124.849 177.424 138.635L177.433 138.626Z" fill="#C5C7F7"/>
<path d="M99.1059 115.034C99.3851 124.439 89.7316 131.5 89.7316 131.5C78.2626 138.337 81.2323 147.919 81.2323 147.919C89.3499 167.38 113.377 156.384 113.377 156.384C121.076 154.924 126.196 156.384 126.196 156.384C134.35 162.152 141.816 162.273 146.843 160.905C152.392 159.398 156.823 156.059 157.344 150.607C158.461 139.063 147.644 130.523 147.644 130.523C139.247 124.569 142.468 115.034 142.468 115.034H99.0965H99.1059Z" fill="#797EF4"/>
<path d="M154.244 154.161C151.554 162.543 140.858 164.943 127.164 159.826C122.509 158.087 117.492 157.919 112.744 159.342C104.17 161.919 95.4663 162.319 90.4393 157.463C84.798 152.012 86.4456 145.137 91.8915 141.937C107.866 132.542 106.591 126.207 115.174 124.969C118.413 124.504 121.569 124.476 124.799 125.025C133.82 126.57 131.8 134.058 150.111 143.863C153.667 145.761 155.52 150.152 154.235 154.17L154.244 154.161Z" fill="#C5C7F7"/>
<path d="M119.586 157.51C123.468 157.715 127.946 158.924 130.208 159.761C132.246 160.515 134.341 161.054 136.482 161.287C148.826 162.589 148.389 153.026 148.389 153.026" stroke="black" stroke-width="2.2" stroke-linecap="round" stroke-linejoin="round"/>
<path d="M120.284 157.547C114.652 157.547 111.645 158.329 110.314 158.812C108.89 159.333 107.447 159.836 105.967 160.133C96.7132 161.994 93.9856 154.375 93.9856 154.375" stroke="black" stroke-width="2.2" stroke-linecap="round" stroke-linejoin="round"/>
<path d="M130.301 143.184C130.301 146.058 125.814 150.859 120.284 150.859C114.755 150.859 110.268 146.058 110.268 143.184C110.268 140.309 114.755 137.974 120.284 137.974C125.814 137.974 130.301 140.309 130.301 143.184Z" fill="#3B3E75"/>
<path d="M115.099 146.924C115.099 148.31 115.546 149.435 116.096 149.435C116.645 149.435 117.092 148.31 117.092 146.924C117.092 145.537 116.645 144.412 116.096 144.412C115.546 144.412 115.099 145.537 115.099 146.924Z" fill="#6164C3"/>
<path d="M124.12 149.435C124.67 149.435 125.116 148.311 125.116 146.924C125.116 145.536 124.67 144.412 124.12 144.412C123.57 144.412 123.124 145.536 123.124 146.924C123.124 148.311 123.57 149.435 124.12 149.435Z" fill="#6164C3"/>
<path d="M108.238 167.724C118.851 172.924 131.725 169.185 131.725 169.185" stroke="black" stroke-width="2.2" stroke-linecap="round" stroke-linejoin="round"/>
<path d="M120.284 177.036C120.284 177.036 110.054 177.138 104.412 175.241C104.412 175.241 70.6106 169.836 64.1687 134.895C64.1687 134.895 62.2604 112.495 72.1747 95.4152C80.7205 80.6985 103.267 76.4193 103.267 76.4193" stroke="black" stroke-width="2.2" stroke-linecap="round" stroke-linejoin="round"/>
<path d="M165.387 91.8988C173.142 88.3638 174.035 88.708 174.035 88.708C184.071 91.7313 183.335 101.992 183.335 101.992" stroke="black" stroke-width="2.2" stroke-linecap="round" stroke-linejoin="round"/>
<path d="M64.0198 107.313C61.5622 105.081 60.0261 102.95 59.0952 101.034C57.252 97.2293 57.8663 92.6803 60.445 89.3965C65.6116 82.8103 69.3073 84.615 69.3073 84.615" stroke="black" stroke-width="2.2" stroke-linecap="round" stroke-linejoin="round"/>
<path d="M175.553 105.443C181.958 120.318 178.3 138.561 178.3 138.561C175.079 155.156 154.375 170.71 148.398 172.041" stroke="black" stroke-width="2.2" stroke-linecap="round" stroke-linejoin="round"/>
<path d="M149.776 131.267C154.66 131.267 158.62 127.082 158.62 121.918C158.62 116.755 154.66 112.569 149.776 112.569C144.892 112.569 140.932 116.755 140.932 121.918C140.932 127.082 144.892 131.267 149.776 131.267Z" fill="#3B3E75"/>
<path d="M157.428 118.392C157.428 120.625 155.715 122.439 153.602 122.439C151.489 122.439 149.776 120.625 149.776 118.392C149.776 116.16 151.489 114.346 153.602 114.346C155.715 114.346 157.428 116.16 157.428 118.392Z" fill="white"/>
<path d="M90.3367 130.495C95.1644 130.495 99.0779 126.36 99.0779 121.258C99.0779 116.156 95.1644 112.02 90.3367 112.02C85.509 112.02 81.5953 116.156 81.5953 121.258C81.5953 126.36 85.509 130.495 90.3367 130.495Z" fill="#3B3E75"/>
<path d="M97.5235 117.769C97.5235 119.9 95.885 121.63 93.8742 121.63C91.8634 121.63 90.2251 119.9 90.2251 117.769C90.2251 115.639 91.8634 113.909 93.8742 113.909C95.885 113.909 97.5235 115.639 97.5235 117.769Z" fill="white"/>
<path d="M40.7346 326.332C48.209 323.024 48.3891 307.079 41.137 290.717C33.8849 274.356 21.9468 263.774 14.4725 267.082C6.99813 270.391 6.81796 286.336 14.0701 302.698C21.3222 319.059 33.2603 329.641 40.7346 326.332Z" fill="#3B3E75"/>
<path d="M147.697 320.474C154.949 304.112 153.976 287.816 145.524 284.075C137.072 280.334 124.341 290.565 117.089 306.926C109.837 323.288 110.81 339.584 119.262 343.325C127.714 347.066 140.445 336.835 147.697 320.474Z" fill="#3B3E75"/>
<path d="M88.8851 209.93C98.3711 226.572 104.431 238.601 93.0742 244.126C81.7263 249.652 65.7238 240.173 57.3269 222.954C48.9394 205.734 54.4225 178.571 64.2157 170.664C78.7194 158.952 71.57 179.576 88.8758 209.93H88.8851Z" fill="#6164C3"/>
<path d="M97.3562 222.098C106.246 230.6 108.257 236.898 104.226 242.442C100.186 247.977 95.7365 248.843 82.7501 242.163C74.1392 237.735 70.0059 229.884 75.88 221.819C82.2195 213.121 90.365 215.409 97.3562 222.098Z" fill="#3B3E75"/>
<path d="M135.031 238.368C146.369 247.791 175.712 233.996 191.193 215.391C206.674 196.785 200.921 182.05 191.091 171.008C178.989 161.426 167.594 174.515 162.148 186.915C160.044 191.706 157.131 196.199 153.379 199.939C139.369 213.874 125.219 222.302 135.031 238.368Z" fill="#6164C3"/>
<path d="M144.181 244.712C133.355 250.563 126.736 250.545 122.705 245.01C118.665 239.475 119.214 234.972 129.557 224.665C136.408 217.828 145.159 216.311 151.033 224.367C157.382 233.065 152.699 240.107 144.181 244.712Z" fill="#3B3E75"/>
<path d="M80.8884 186.999C87.0046 203.558 95.0291 214.442 99.8605 220.005C102.448 222.981 105.958 225.009 109.831 225.754C119.047 227.53 125.256 226.861 125.256 226.861" stroke="black" stroke-width="2.2" stroke-linecap="round" stroke-linejoin="round"/>
<path d="M74.707 179.213C73.8133 177.148 72.5845 175.027 71.5698 173.389C70.5551 171.752 68.2743 171.492 66.9059 172.841C59.8774 179.762 57.4291 190.032 56.6751 198.181C55.9862 205.632 57.4291 213.13 60.7339 219.837C67.5761 233.698 71.5698 236.47 71.5698 236.47" stroke="black" stroke-width="2.2" stroke-linecap="round" stroke-linejoin="round"/>
<path d="M81.4095 219.493C77.4438 222.498 76.094 225.744 75.6937 228.098C75.3865 229.903 75.6658 231.884 76.8388 233.289C85.3567 243.447 93.828 245.159 97.5889 244.982C98.7153 244.926 99.8138 244.545 100.68 243.819C103.37 241.568 103.994 238.489 103.994 238.489" stroke="black" stroke-width="2.2" stroke-linecap="round" stroke-linejoin="round"/>
<path d="M132.926 247.187C130.115 248.145 126.717 245.698 126.717 245.698C124.008 243.484 123.161 240.917 122.947 239.056C122.789 237.68 123.068 236.284 123.701 235.056C129.296 224.116 139.573 221.94 139.573 221.94C145.038 220.907 149.283 225.586 150.065 226.991C151.908 230.284 150.874 234.033 150.874 234.033" stroke="black" stroke-width="2.2" stroke-linecap="round" stroke-linejoin="round"/>
<path d="M159.085 197.446C165.313 192.06 169.865 181.045 169.865 181.045C172.5 175.482 176.475 173.408 179.752 172.71C183.187 171.985 186.734 172.98 189.415 175.241C198.603 182.99 196.331 196.72 196.331 196.72C190.82 226.163 156.33 235.14 156.33 235.14" stroke="black" stroke-width="2.2" stroke-linecap="round" stroke-linejoin="round"/>
<path d="M27.6024 267.559C31.7729 258.499 49.7304 259.68 49.7304 259.68C59.4678 260.852 64.7181 266.22 64.7181 266.22" stroke="black" stroke-width="2.2" stroke-linecap="round" stroke-linejoin="round"/>
<path d="M51.918 255.82C62.8283 253.14 66.524 239.717 66.524 239.717" stroke="black" stroke-width="2.2" stroke-linecap="round" stroke-linejoin="round"/>
<path d="M106.973 280.481C115.193 260.694 136.492 254.006 149.264 259.634C162.036 265.262 163.349 274.946 163.349 274.946" stroke="black" stroke-width="2.2" stroke-linecap="round" stroke-linejoin="round"/>
<path d="M133.522 334.603C127.536 340.445 123.608 341.199 119.242 339.357C116.654 338.268 112.986 329.701 114.885 322.5C116.794 315.291 121.821 294.323 138.968 287.43C144.582 285.755 148.761 289.058 149.441 296.407" stroke="black" stroke-width="2.2" stroke-linecap="round" stroke-linejoin="round"/>
<path d="M209.913 221.781C216.411 246.591 214.568 267.513 210.9 282.574C206.646 300.044 195.149 314.789 179.305 323.31C160.994 333.152 146.546 334.333 146.546 334.333" stroke="black" stroke-width="2.2" stroke-linecap="round" stroke-linejoin="round"/>
<path d="M32.0055 280.481C20.9369 267.132 16.4591 270.22 16.4591 270.22C7.90399 273.225 12.8845 290.127 16.8688 300.472C19.1216 306.314 22.4823 311.672 26.8111 316.203C35.6455 325.449 39.1829 323.98 39.1829 323.98C44.7591 323.849 43.9678 312.565 43.9678 312.565" stroke="black" stroke-width="2.2" stroke-linecap="round" stroke-linejoin="round"/>
<path d="M47.3472 322.38C56.2467 326.463 68.0881 327.022 74.3997 326.984C79.7246 326.956 85.0401 327.598 90.1787 329.012C99.9441 331.701 108.164 335.766 108.164 335.766" stroke="black" stroke-width="2.2" stroke-linecap="round" stroke-linejoin="round"/>
<path d="M99.2365 349.413C87.2649 345.664 77.751 343.087 77.751 343.087C65.0067 341.682 73.1243 352.222 73.1243 352.222C132.107 393.674 181.716 373.283 201.2 361.888C209.355 357.115 215.769 349.794 219.083 340.957C227.592 318.268 217.314 294.621 217.314 294.621" stroke="black" stroke-width="2.2" stroke-linecap="round" stroke-linejoin="round"/>
<path d="M100.472 81.7966C108.121 74.153 105.969 59.6104 95.6664 49.3148C85.3635 39.0192 70.8106 36.8694 63.1616 44.5129C55.5125 52.1565 57.6639 66.6991 67.9668 76.9947C78.2697 87.2903 92.8226 89.4401 100.472 81.7966Z" fill="#3B3E75"/>
<path d="M152.913 50.5208C165.527 43.2369 180.143 44.93 185.551 54.2883C190.96 63.6467 185.468 77.796 172.5 84.4194C161.534 90.0196 145.271 90.0102 139.862 80.6518C134.453 71.2935 140.299 57.8047 152.913 50.5208Z" fill="#3B3E75"/>
<path d="M65.0068 69.2284C66.971 85.8242 69.5869 97.4245 75.2469 97.4245C86.9113 97.4245 87.9912 92.2895 87.9912 76.7169C87.9912 61.1444 100.717 41.4788 85.4776 37.9531C79.9014 36.66 63.1915 53.8605 65.0068 69.2284Z" fill="#6164C3"/>
<path d="M84.8073 48.2976C84.8073 72.661 77.118 94.9128 113.48 96.0942C158.908 97.5733 170.824 78.2519 164.764 54.6605C157.493 26.3249 163.377 2.96611 131.474 4.34289C124.371 4.64988 117.399 3.22659 110.482 1.58934C75.5912 -6.67135 84.798 26.2226 84.798 48.2976H84.8073Z" fill="#797EF4"/>
<path d="M86.0362 68.3075C85.5894 83.5544 89.3409 94.7454 121.225 94.7454C141.938 94.7454 155.483 82.8567 155.483 68.1865C155.483 53.5163 153.174 32.1856 121.225 41.6277C85.5986 25.6086 84.5468 36.1205 86.0362 68.3075Z" fill="#C5C7F7"/>
<path d="M153.165 32.1856C131.53 39.6742 107.531 35.395 107.531 35.395C88.4658 31.1158 87.6093 23.8319 87.6093 23.8319C86.064 40.6417 103.249 45.2371 103.249 45.2371C128.951 53.5816 146.09 41.3859 146.09 41.3859C152.727 38.1765 153.155 32.1763 153.155 32.1763L153.165 32.1856Z" fill="#6164C3"/>
<path d="M150.418 33.0694C134.407 38.4556 112.958 36.0834 112.958 36.0834C95.5221 34.781 87.6187 23.8319 87.6187 23.8319C88.0283 29.5623 94.3119 37.6927 102.457 41.0324C107.056 42.9208 111.869 44.0185 116.84 44.2697C123.617 44.6046 127.481 43.7859 131.307 43.3115C136.129 42.7068 140.7 40.8277 144.554 37.8788C147.728 35.4508 150.418 33.0694 150.418 33.0694Z" fill="#3B3E75"/>
<path d="M92.9714 23.8318C95.9277 23.8318 98.3242 20.2874 98.3242 15.9153C98.3242 11.5431 95.9277 7.99878 92.9714 7.99878C90.0152 7.99878 87.6187 11.5431 87.6187 15.9153C87.6187 20.2874 90.0152 23.8318 92.9714 23.8318Z" fill="#3B3E75"/>
<path d="M94.9939 16.2388C96.3666 16.2388 97.4794 14.9977 97.4794 13.4666C97.4794 11.9356 96.3666 10.6945 94.9939 10.6945C93.6212 10.6945 92.5083 11.9356 92.5083 13.4666C92.5083 14.9977 93.6212 16.2388 94.9939 16.2388Z" fill="white"/>
<path d="M140.551 29.832C144.453 29.832 147.617 26.0961 147.617 21.4876C147.617 16.8791 144.453 13.1432 140.551 13.1432C136.649 13.1432 133.485 16.8791 133.485 21.4876C133.485 26.0961 136.649 29.832 140.551 29.832Z" fill="#3B3E75"/>
<path d="M142.781 22.8444C144.853 22.8444 146.533 21.166 146.533 19.0955C146.533 17.025 144.853 15.3466 142.781 15.3466C140.709 15.3466 139.03 17.025 139.03 19.0955C139.03 21.166 140.709 22.8444 142.781 22.8444Z" fill="white"/>
<path d="M122.714 26.911C120.685 26.5575 119.633 28.1482 119.633 28.1482" stroke="#0B0E23" stroke-miterlimit="10" stroke-linecap="round"/>
<path d="M110.724 26.3156C112.781 26.3807 113.498 28.1482 113.498 28.1482" stroke="#0B0E23" stroke-miterlimit="10" stroke-linecap="round"/>
<path d="M172.602 70.8563C170.722 87.2288 168.199 98.671 162.772 98.671C151.563 98.671 150.521 93.6104 150.521 78.2425C150.521 62.884 138.298 43.4788 152.932 39.9997C158.285 38.7252 174.343 55.6931 172.602 70.8563Z" fill="#6164C3"/>
<path d="M86.716 21.069C86.5485 22.6597 87.619 23.8318 87.619 23.8318C98.3339 37.8787 123.162 36.6415 123.162 36.6415C143.604 36.2229 154.412 31.7855 154.412 31.7855" stroke="#0B0E23" stroke-miterlimit="10" stroke-linecap="round"/>
<path d="M149.497 33.3204C145.624 39.1997 138.754 41.2741 138.754 41.2741C113.033 48.2231 99.8044 39.9345 99.8044 39.9345C93.4183 36.9205 89.4432 29.4133 89.4432 29.4133" stroke="#0B0E23" stroke-miterlimit="10" stroke-linecap="round"/>
<path d="M91.2028 39.088C85.4404 46.8092 88.6241 68.8749 88.6241 68.8749C89.2013 73.2564 89.9368 76.596 90.6722 79.1077C92.0779 83.8892 95.606 87.7777 100.261 89.5638C108.667 92.7918 117.827 92.4476 117.827 92.4476" stroke="#0B0E23" stroke-miterlimit="10" stroke-linecap="round"/>
<path d="M94.5914 4.7522C97.5704 5.00337 99.7208 8.71509 100.177 9.63605" stroke="#0B0E23" stroke-miterlimit="10" stroke-linecap="round"/>
<path d="M139.787 9.27322C134.397 9.1988 132.061 13.2919 132.061 13.2919" stroke="#0B0E23" stroke-miterlimit="10" stroke-linecap="round"/>
<path d="M157.493 38.6229C157.624 22.4364 153.165 14.2967 153.165 14.2967C145.522 2.53819 128.886 5.68246 128.886 5.68246C117.725 5.96153 111.878 4.4266 109.356 3.46844C107.28 2.67772 105.111 2.12888 102.904 1.91492C93.6976 1.00327 90.4858 4.76151 90.4858 4.76151" stroke="#0B0E23" stroke-miterlimit="10" stroke-linecap="round"/>
<path d="M147.924 50.7814C148.017 44.2882 152.206 42.1765 152.206 42.1765C158.09 40.2416 165.118 53.1442 165.118 53.1442C173.571 63.9445 169.68 81.4985 169.68 81.4985C165.593 95.8058 164.643 97.0338 164.643 97.0338C162.456 102.039 155.902 104.141 155.52 104.318C155.138 104.494 155.055 100.932 155.055 100.932C150.614 103.35 149.004 102.42 149.004 102.42C148.576 100.969 150.847 97.9268 150.847 97.9268C147.775 98.2617 145.736 97.7036 145.736 97.7036C147.859 95.35 152.197 91.3592 152.197 91.3592C154.236 87.8987 152.197 74.8471 152.197 74.8471" stroke="#0B0E23" stroke-linecap="round" stroke-linejoin="round"/>
<path d="M81.1768 42.0928C70.6109 50.7256 68.1253 62.4654 68.1253 62.4654C64.2713 72.9029 73.9157 96.5873 73.9157 96.5873C74.9397 100.029 79.7526 100.597 79.7526 100.597C79.8178 98.8385 79.1289 97.3501 79.1289 97.3501C81.9682 99.4339 85.7756 99.7315 85.7756 99.7315C86.8462 96.7454 85.7756 95.9547 85.7756 95.9547C88.5777 96.8663 90.5606 95.8617 90.5606 95.8617C89.0897 92.6802 84.4723 88.401 84.4723 88.401C79.0171 78.6612 81.2792 72.6982 81.2792 72.6982" stroke="#0B0E23" stroke-linecap="round" stroke-linejoin="round"/>
<path d="M75.8242 41.9811C60.2965 41.7764 60.6224 57.7675 60.6224 57.7675C60.6224 64.4933 64.076 70.6516 64.076 70.6516" stroke="#0B0E23" stroke-linecap="round" stroke-linejoin="round"/>
<path d="M166.235 48.158C180.729 46.344 184.881 56.7629 184.881 56.7629C188.661 66.9864 177.322 78.503 177.322 78.503" stroke="#0B0E23" stroke-linecap="round" stroke-linejoin="round"/>
<path d="M175.311 84.8196C181.791 85.694 182.228 87.7964 182.228 87.7964L178.29 89.4616C181.884 90.0755 182.926 92.457 182.926 92.457C178.197 95.5827 176.708 93.657 176.708 93.657C178.895 95.3222 179.119 96.4571 179.119 96.4571C176.01 98.206 167.604 95.6664 167.604 95.6664" stroke="#0B0E23" stroke-linecap="round" stroke-linejoin="round"/>
<path d="M65.7703 78.8472C59.0676 79.1635 55.8746 81.8054 55.8746 81.8054L59.7564 83.6101C56.1445 84.0938 55.0088 86.4381 55.0088 86.4381C58.8256 88.3079 61.1808 87.8614 61.1808 87.8614C58.9373 89.4428 58.6767 90.5684 58.6767 90.5684C61.7208 92.4289 70.2108 90.1963 70.2108 90.1963" stroke="#0B0E23" stroke-linecap="round" stroke-linejoin="round"/>
<path d="M90.2904 5.04993C81.3536 13.2362 82.5328 29.8568 84.2394 37.1438" stroke="black"/>
<path d="M92.5084 89.7806C113.613 103.921 135.183 95.0521 143.329 88.8503" stroke="black" stroke-linecap="round"/>
</svg>
