<svg width="374" height="328" viewBox="0 0 374 328" fill="none" xmlns="http://www.w3.org/2000/svg">
<path d="M196.232 139.486C226.303 118.648 235.752 30.2552 235.752 30.2552C240.178 -9.49469 265.929 1.35211 265.929 1.35211C309.916 26.4691 233.171 192.315 233.171 192.315C233.171 192.315 204.535 182.399 198.691 170.799C192.848 159.198 196.232 139.486 196.232 139.486Z" fill="#6164C3"/>
<path d="M238.268 33.0831C235.236 75.8843 219.59 116.341 215.73 121.123" stroke="#2D252A" stroke-width="1.82" stroke-linecap="round" stroke-linejoin="round"/>
<path d="M275.83 24.962C280.19 68.9725 247.325 147.719 247.325 147.719" stroke="#2D252A" stroke-width="1.82" stroke-linecap="round" stroke-linejoin="round"/>
<path d="M364.073 204.293C369.128 158.934 359.746 120.228 343.118 117.84C326.489 115.452 308.91 150.287 303.855 195.646C298.8 241.004 308.182 279.711 324.81 282.098C341.439 284.486 359.017 249.651 364.073 204.293Z" fill="#6164C3"/>
<path d="M361.631 164.091C364.049 226.279 343.306 261.545 343.306 261.545" stroke="#2D252A" stroke-width="1.82" stroke-linecap="round" stroke-linejoin="round"/>
<path d="M111.103 100.341C117.618 80.7682 133.903 67.4655 152.344 66.0794C197.249 62.6933 206.879 96.5267 206.879 96.5267C210.263 107.411 211.034 116.537 211.181 121.169C211.296 124.751 212.263 128.267 214.189 131.104C222.246 142.993 242.03 150.668 242.03 150.668C276.034 157.914 301.589 179.478 315.735 194.297C324.865 203.86 345.608 201.962 345.575 216.037C345.379 306.263 303.244 320.626 303.244 320.626C210.116 357.306 151 245.173 151 245.173C87.8433 155.97 110.537 102.108 110.537 102.108C110.718 101.513 110.906 100.927 111.095 100.35L111.103 100.341Z" fill="#3B3E75"/>
<path d="M361.379 152.934C363.109 137.455 357.988 123.967 349.942 122.808C341.895 121.65 333.969 133.259 332.239 148.738C330.509 164.217 335.63 177.704 343.676 178.863C351.723 180.022 359.649 168.413 361.379 152.934Z" fill="#C5C7F7"/>
<path d="M344.002 126.062C348.583 125.951 350.804 125.914 353.238 126.639C356.902 127.728 359.082 131.998 359.361 136.277C360.803 158.463 351.73 171.319 351.73 171.319" stroke="#2D252A" stroke-width="1.82" stroke-linecap="round" stroke-linejoin="round"/>
<path d="M349.041 194.724C354.096 149.365 343.254 110.45 324.825 107.804C306.395 105.157 287.357 139.782 282.302 185.141C277.246 230.5 288.088 269.415 306.517 272.062C324.947 274.708 343.985 240.083 349.041 194.724Z" fill="#3B3E75"/>
<path d="M160.441 159.505C139.141 159.226 122.675 143.012 125.331 123.551C126.806 112.36 130.043 99.6244 153.008 99.7919C156.794 99.8198 160.564 98.9919 164.048 97.2895C189.045 85.1031 204.248 106.183 202.461 124.565C200.552 144.147 181.742 159.784 160.45 159.505H160.441Z" fill="#CDD0FF"/>
<path d="M127.527 138.714C132.576 128.714 137.076 124.23 139.362 122.416C140.256 121.709 141.255 121.178 142.313 120.853C147.214 119.346 149.943 121.206 151.377 123.058C152.426 124.406 152.877 126.202 152.779 127.997C152.607 131.095 151.762 133.551 150.803 135.374C149.795 137.3 148.377 138.928 146.722 140.146C138.207 146.416 138.116 152.203 138.116 152.203C129.339 145.449 127.527 138.705 127.527 138.705V138.714Z" fill="#9194FB"/>
<path d="M202.65 123.039C194.839 115.662 189.241 113.234 186.537 112.434C185.479 112.118 184.381 112.016 183.291 112.127C178.234 112.648 176.251 115.476 175.472 117.765C174.907 119.448 175.038 121.3 175.686 122.955C176.8 125.793 178.349 127.756 179.808 129.095C181.349 130.509 183.176 131.467 185.102 131.96C195.011 134.472 196.88 139.867 196.88 139.867C203.027 130.072 202.65 123.039 202.65 123.039Z" fill="#9194FB"/>
<path d="M144.394 135.858C147.716 135.858 150.41 132.809 150.41 129.048C150.41 125.288 147.716 122.239 144.394 122.239C141.071 122.239 138.378 125.288 138.378 129.048C138.378 132.809 141.071 135.858 144.394 135.858Z" fill="#43479A"/>
<path d="M145.656 130.276C147.475 130.276 148.95 128.606 148.95 126.546C148.95 124.486 147.475 122.816 145.656 122.816C143.836 122.816 142.361 124.486 142.361 126.546C142.361 128.606 143.836 130.276 145.656 130.276Z" fill="white"/>
<path d="M183.652 127.169C186.974 127.169 189.667 124.121 189.667 120.36C189.667 116.599 186.974 113.55 183.652 113.55C180.329 113.55 177.636 116.599 177.636 120.36C177.636 124.121 180.329 127.169 183.652 127.169Z" fill="#43479A"/>
<path d="M184.905 121.578C186.725 121.578 188.2 119.908 188.2 117.848C188.2 115.788 186.725 114.118 184.905 114.118C183.086 114.118 181.611 115.788 181.611 117.848C181.611 119.908 183.086 121.578 184.905 121.578Z" fill="white"/>
<path d="M166.966 136.258C167.236 138.295 166.138 140.007 164.851 141.272C163.261 142.835 161.278 143.765 159.204 144.184C150.476 145.914 149.115 143.905 149.115 143.905" stroke="#2D252A" stroke-width="1.82" stroke-linecap="round" stroke-linejoin="round"/>
<path d="M167.113 136.23C167.49 138.249 169.039 139.412 170.637 140.091C172.604 140.928 174.76 141.021 176.825 140.584C185.537 138.76 186.193 136.342 186.193 136.342" stroke="#2D252A" stroke-width="1.82" stroke-linecap="round" stroke-linejoin="round"/>
<path d="M168.58 135.932L165.351 136.593C163.072 137.058 161.04 135.718 161.023 133.746L160.983 129.951C160.966 128.295 162.384 126.769 164.294 126.379L166.424 125.941C168.334 125.551 170.129 126.425 170.629 127.979L171.76 131.551C172.35 133.411 170.858 135.458 168.58 135.923V135.932Z" fill="#43479A"/>
<path d="M169.294 134.778C169.873 134.659 170.214 133.755 170.055 132.759C169.895 131.763 169.297 131.052 168.718 131.172C168.139 131.291 167.799 132.195 167.958 133.191C168.117 134.186 168.715 134.897 169.294 134.778Z" fill="#6F73DA"/>
<path d="M164.423 135.776C165.002 135.657 165.342 134.753 165.183 133.757C165.024 132.761 164.426 132.05 163.847 132.17C163.268 132.289 162.927 133.193 163.086 134.189C163.246 135.184 163.844 135.895 164.423 135.776Z" fill="#6F73DA"/>
<path d="M40.1721 128.531C46.8739 123.353 46.0304 108.689 38.288 95.7778C30.5457 82.8661 18.8364 76.5963 12.1346 81.7736C5.43284 86.951 6.27641 101.615 14.0188 114.527C21.7611 127.438 33.4703 133.708 40.1721 128.531Z" fill="#C5C7F7"/>
<path d="M50.4051 96.4616C49.3069 106.35 45.3483 113.923 41.5701 113.383C37.7918 112.843 39.8982 105.001 40.9964 95.1127C42.0946 85.2241 41.775 77.0378 45.5533 77.5774C49.3315 78.1169 51.5034 86.5637 50.4051 96.4523V96.4616Z" fill="#C5C7F7"/>
<path d="M115.635 182.045C178.718 217.377 194.183 227.87 178.488 254.838C160.482 282.662 113.307 256.95 70.2715 212.846C27.2356 168.743 -3.21984 114.453 22.6378 95.1314C41.152 81.2984 55.6011 103.913 87.3187 145.542C94.8998 155.496 105.226 176.222 115.635 182.045Z" fill="#797EF4"/>
<path d="M38.3083 95.8198C22.638 95.1314 18.8844 105.485 17.9173 114.351C15.9421 132.537 32.0878 160.073 55.2736 188.204C80.1395 218.372 102.916 240.587 126.954 252.001C150.992 263.415 165.146 261.406 169.145 259.35C175.358 256.159 181.079 246.745 179.931 238.596" stroke="#2D252A" stroke-width="1.82" stroke-linecap="round" stroke-linejoin="round"/>
<path d="M183.472 75.0379C159.606 65.8469 139.28 70.7215 127.904 79.7357C116.529 88.7406 111.185 106.369 110.243 118.22C109.292 130.072 112.718 167.785 120.02 180.604" stroke="#2D252A" stroke-width="1.82" stroke-linecap="round" stroke-linejoin="round"/>
<path d="M338.068 127.839C333.847 112.397 321.078 113.82 321.078 113.82C292.565 124.314 285.369 206.009 285.369 206.009" stroke="#2D252A" stroke-width="1.82" stroke-linecap="round" stroke-linejoin="round"/>
<path d="M173.604 268.001C237.121 348.915 303.081 313.919 303.081 313.919C347.879 283.174 339.74 212.93 339.74 212.93" stroke="#2D252A" stroke-width="1.82" stroke-linecap="round" stroke-linejoin="round"/>
<path d="M209.796 132.416C219.885 153.998 246.251 158.296 246.251 158.296C265.675 162.222 283.484 175.217 283.484 175.217" stroke="#2D252A" stroke-width="1.82" stroke-linecap="round" stroke-linejoin="round"/>
<path d="M12.7704 107.308C2.96004 85.4473 11.3197 79.0192 11.3197 79.0192C17.6796 72.9539 25.4 79.5402 25.4 79.5402" stroke="#2D252A" stroke-width="1.82" stroke-linecap="round" stroke-linejoin="round"/>
<path d="M9.8526 80.8798C15.3929 86.0148 17.909 92.2289 17.909 92.2289" stroke="#2D252A" stroke-width="1.82" stroke-linecap="round" stroke-linejoin="round"/>
<path d="M17.4991 76.4425C21.9576 80.7217 25.2933 89.3731 25.2933 89.3731" stroke="#2D252A" stroke-width="1.82" stroke-linecap="round" stroke-linejoin="round"/>
<path d="M42.0209 92.6011C43.365 86.7405 42.7586 82.8241 42.275 81.0101C41.98 79.9031 41.9553 78.703 42.3487 77.6332C43.9059 73.4378 48.2415 76.5635 48.2415 76.5635" stroke="#2D252A" stroke-width="1.82" stroke-linecap="round" stroke-linejoin="round"/>
</svg>
